{"title":"Dorian.Gray.2009.DVDRIP.XviD-ZEKTORM","uid":5241819,"size":739772396,"categoryP":"video","categoryS":"movies","magnet":"?xt=urn:btih:3e57e437681d9ffb9b0a3069bc08433f3b79f922&amp;dn=Dorian.Gray.2009.DVDRIP.XviD-ZEKTORM&amp;tr=udp%3A%2F%2Ftracker.openbittorrent.com%3A80&amp;tr=udp%3A%2F%2Fopen.demonii.com%3A1337&amp;tr=udp%3A%2F%2Ftracker.coppersurfer.tk%3A6969&amp;tr=udp%3A%2F%2Fexodus.desync.com%3A6969","seeders":0,"leechers":0,"uploader":"blowley","files":5,"time":1261796074,"description":"Title                            : Dorian Gray\nYear                             : 2009\nGenre                            : Drama\niMDB URL                         : http://www.imdb.com/title/tt1235124/\nAwards                           : 1 nomination\n\nComplete name                    : Dorian.Gray.2009.DVDRIP.XviD-ZEKTORM.avi\nFormat                           : AVI\nFile size                        : 701 MiB\nDuration                         : 1h 47mn\nOverall bit rate                 : 910 Kbps\nSubtitles                        : English (Format: VobSub)\n\nVideo\nFormat                           : MPEG-4 Visual\nFormat profile                   : Streaming Video@L1\nCodec ID                         : XVID\nCodec ID/Hint                    : XviD\nDuration                         : 1h 47mn\nBit rate                         : 785 Kbps\nWidth                            : 720 pixels\nHeight                           : 400 pixels\nDisplay aspect ratio             : 16/9\nFrame rate                       : 25.000 fps\nResolution                       : 24 bits\nColorimetry                      : 4:2:0\nScan type                        : Progressive\nBits/(Pixel*Frame)               : 0.109\nStream size                      : 604 MiB (86%)\nWriting library                  : XviD\n\nAudio\nFormat                           : MPEG Audio\nFormat version                   : Version 1\nFormat profile                   : Layer 3\nCodec ID                         : 55\nCodec ID/Hint                    : MP3\nDuration                         : 1h 47mn\nBit rate mode                    : Variable\nBit rate                         : 112 Kbps\nMinimum bit rate                 : 128 Kbps\nChannel(s)                       : 2 channels\nSampling rate                    : 48.0 KHz\nResolution                       : 16 bits\nStream size                      : 86.5 MiB (12%)\nWriting library                  : LAME3.98r\nEncoding settings                : ABR\n","torrent":{"xt":"urn:btih:3e57e437681d9ffb9b0a3069bc08433f3b79f922","amp;dn":"Dorian.Gray.2009.DVDRIP.XviD-ZEKTORM","amp;tr":["udp%3A%2F%2Ftracker.openbittorrent.com%3A80","udp%3A%2F%2Fopen.demonii.com%3A1337","udp%3A%2F%2Ftracker.coppersurfer.tk%3A6969","udp%3A%2F%2Fexodus.desync.com%3A6969"],"infoHash":"3e57e437681d9ffb9b0a3069bc08433f3b79f922","infoHashBuffer":{"type":"Buffer","data":[62,87,228,55,104,29,159,251,155,10,48,105,188,8,67,63,59,121,249,34]},"announce":[],"urlList":[]}}